{
  "accessors": [
    {
      "bufferView": 2,
      "componentType": 5126,
      "count": 2482,
      "max": [
        2.1449761390686035,
        1.1014034748077393,
        2.6949877738952637
      ],
      "min": [
        -2.156512975692749,
        -1.4642959833145142,
        -1.58538818359375
      ],
      "type": "VEC3"
    },
    {
      "bufferView": 2,
      "byteOffset": 29784,
      "componentType": 5126,
      "count": 2482,
      "max": [
        0.9995399713516235,
        1.0,
        0.9998220205307007
      ],
      "min": [
        -0.999542236328125,
        -1.0,
        -0.9972137212753296
      ],
      "type": "VEC3"
    },
    {
      "bufferView": 3,
      "componentType": 5126,
      "count": 2482,
      "max": [
        0.9960328340530396,
        0.9999469518661499,
        1.0,
        1.0
      ],
      "min": [
        -0.9974444508552551,
        -0.9999893307685852,
        -0.9998995065689087,
        1.0
      ],
      "type": "VEC4"
    },
    {
      "bufferView": 1,
      "componentType": 5126,
      "count": 2482,
      "max": [
        1.0,
        1.0
      ],
      "min": [
        0.0,
        0.0
      ],
      "type": "VEC2"
    },
    {
      "bufferView": 0,
      "componentType": 5125,
      "count": 8448,
      "type": "SCALAR"
    },
    {
      "bufferView": 2,
      "byteOffset": 59568,
      "componentType": 5126,
      "count": 5205,
      "max": [
        1.1753208637237549,
        6.488109588623047,
        0.7579975128173828
      ],
      "min": [
        -2.2031309604644775,
        -4.327245712280273,
        -0.6461954712867737
      ],
      "type": "VEC3"
    },
    {
      "bufferView": 2,
      "byteOffset": 122028,
      "componentType": 5126,
      "count": 5205,
      "max": [
        1.0,
        1.0,
        1.0
      ],
      "min": [
        -1.0,
        -1.0,
        -1.0
      ],
      "type": "VEC3"
    },
    {
      "bufferView": 3,
      "byteOffset": 39712,
      "componentType": 5126,
      "count": 5205,
      "max": [
        1.0,
        1.0,
        1.0,
        1.0
      ],
      "min": [
        -1.0,
        -1.0,
        -0.9999998807907104,
        -1.0
      ],
      "type": "VEC4"
    },
    {
      "bufferView": 1,
      "byteOffset": 19856,
      "componentType": 5126,
      "count": 5205,
      "max": [
        0.9970436096191406,
        0.9988405704498291
      ],
      "min": [
        0.0011593103408813477,
        0.0011591911315917969
      ],
      "type": "VEC2"
    },
    {
      "bufferView": 0,
      "byteOffset": 33792,
      "componentType": 5125,
      "count": 15882,
      "type": "SCALAR"
    }
  ],
  "asset": {
    "extras": {
      "author": "NataN (https://sketchfab.com/NataN-0)",
      "license": "CC-BY-4.0 (http://creativecommons.org/licenses/by/4.0/)",
      "source": "https://sketchfab.com/3d-models/old-vintage-tv-5c1a5cd50a124f41b2769d1dbd71eaf2",
      "title": "Old Vintage TV"
    },
    "generator": "Sketchfab-14.21.0",
    "version": "2.0"
  },
  "bufferViews": [
    {
      "buffer": 0,
      "byteLength": 97320,
      "name": "floatBufferViews",
      "target": 34963
    },
    {
      "buffer": 0,
      "byteLength": 61496,
      "byteOffset": 97320,
      "byteStride": 8,
      "name": "floatBufferViews",
      "target": 34962
    },
    {
      "buffer": 0,
      "byteLength": 184488,
      "byteOffset": 158816,
      "byteStride": 12,
      "name": "floatBufferViews",
      "target": 34962
    },
    {
      "buffer": 0,
      "byteLength": 122992,
      "byteOffset": 343304,
      "byteStride": 16,
      "name": "floatBufferViews",
      "target": 34962
    }
  ],
  "buffers": [
    {
      "byteLength": 466296,
      "uri": "scene.bin"
    }
  ],
  "images": [
    {
      "uri": "textures/Shell_baseColor.png"
    },
    {
      "uri": "textures/Shell_metallicRoughness.png"
    },
    {
      "uri": "textures/Shell_normal.png"
    },
    {
      "uri": "textures/larger_baseplate_baseColor.png"
    },
    {
      "uri": "textures/larger_baseplate_metallicRoughness.png"
    },
    {
      "uri": "textures/larger_baseplate_normal.png"
    }
  ],
  "materials": [
    {
      "doubleSided": true,
      "name": "Shell",
      "normalTexture": {
        "index": 2,
        "scale": 0.5489623490496054
      },
      "occlusionTexture": {
        "index": 1
      },
      "pbrMetallicRoughness": {
        "baseColorTexture": {
          "index": 0
        },
        "metallicFactor": 0.8894748203188656,
        "metallicRoughnessTexture": {
          "index": 1
        }
      }
    },
    {
      "doubleSided": true,
      "name": "larger_baseplate",
      "normalTexture": {
        "index": 5
      },
      "occlusionTexture": {
        "index": 4
      },
      "pbrMetallicRoughness": {
        "baseColorTexture": {
          "index": 3
        },
        "metallicRoughnessTexture": {
          "index": 4
        }
      }
    }
  ],
  "meshes": [
    {
      "name": "Cube_Shell_0",
      "primitives": [
        {
          "attributes": {
            "NORMAL": 1,
            "POSITION": 0,
            "TANGENT": 2,
            "TEXCOORD_0": 3
          },
          "indices": 4,
          "material": 0,
          "mode": 4
        }
      ]
    },
    {
      "name": "Circle.001_larger baseplate_0",
      "primitives": [
        {
          "attributes": {
            "NORMAL": 6,
            "POSITION": 5,
            "TANGENT": 7,
            "TEXCOORD_0": 8
          },
          "indices": 9,
          "material": 1,
          "mode": 4
        }
      ]
    }
  ],
  "nodes": [
    {
      "children": [
        1
      ],
      "matrix": [
        1.0,
        0.0,
        0.0,
        0.0,
        0.0,
        2.220446049250313e-16,
        -1.0,
        0.0,
        0.0,
        1.0,
        2.220446049250313e-16,
        0.0,
        0.0,
        0.0,
        0.0,
        1.0
      ],
      "name": "Sketchfab_model"
    },
    {
      "children": [
        2
      ],
      "matrix": [
        0.009999999776482582,
        0.0,
        0.0,
        0.0,
        0.0,
        0.0,
        0.009999999776482582,
        0.0,
        0.0,
        -0.009999999776482582,
        0.0,
        0.0,
        0.0,
        0.0,
        0.0,
        1.0
      ],
      "name": "3d4cf47926d446a99efb6490b06149d9.fbx"
    },
    {
      "children": [
        3,
        5
      ],
      "name": "RootNode"
    },
    {
      "children": [
        4
      ],
      "matrix": [
        100.0,
        0.0,
        0.0,
        0.0,
        0.0,
        -1.629206793918314e-05,
        -99.99999999999868,
        0.0,
        0.0,
        99.99999999999868,
        -1.629206793918314e-05,
        0.0,
        0.0,
        0.0,
        0.0,
        1.0
      ],
      "name": "Cube"
    },
    {
      "mesh": 0,
      "name": "Cube_Shell_0"
    },
    {
      "children": [
        6
      ],
      "matrix": [
        22.016071319580078,
        0.0,
        0.0,
        0.0,
        0.0,
        22.016071319580014,
        -1.6621673351413875e-06,
        0.0,
        0.0,
        1.6621673351413875e-06,
        22.016071319580014,
        0.0,
        176.87713623046875,
        -12.798478126525879,
        151.7587432861328,
        1.0
      ],
      "name": "Circle.001"
    },
    {
      "mesh": 1,
      "name": "Circle.001_larger baseplate_0"
    }
  ],
  "samplers": [
    {
      "magFilter": 9729,
      "minFilter": 9987,
      "wrapS": 10497,
      "wrapT": 10497
    }
  ],
  "scene": 0,
  "scenes": [
    {
      "name": "Sketchfab_Scene",
      "nodes": [
        0
      ]
    }
  ],
  "textures": [
    {
      "sampler": 0,
      "source": 0
    },
    {
      "sampler": 0,
      "source": 1
    },
    {
      "sampler": 0,
      "source": 2
    },
    {
      "sampler": 0,
      "source": 3
    },
    {
      "sampler": 0,
      "source": 4
    },
    {
      "sampler": 0,
      "source": 5
    }
  ]
}
