{
	"asset":{
		"generator":"Khronos glTF Blender I/O v4.2.70",
		"version":"2.0"
	},
	"scene":0,
	"scenes":[
		{
			"name":"Scene",
			"nodes":[
				7
			]
		}
	],
	"nodes":[
		{
			"mesh":0,
			"name":"Circle.001_larger baseplate_0"
		},
		{
			"children":[
				0
			],
			"name":"Circle.001",
			"scale":[
				22.016071319580078,
				22.016069412231445,
				22.016069412231445
			],
			"translation":[
				176.87713623046875,
				-12.798478126525879,
				151.75872802734375
			]
		},
		{
			"mesh":1,
			"name":"Cube_Shell_0"
		},
		{
			"mesh":2,
			"name":"tv_screen"
		},
		{
			"children":[
				2,
				3
			],
			"name":"Cube",
			"rotation":[
				-0.70710688829422,
				0,
				0,
				0.7071066498756409
			],
			"scale":[
				100,
				99.99999237060547,
				99.99999237060547
			]
		},
		{
			"children":[
				1,
				4
			],
			"name":"RootNode"
		},
		{
			"children":[
				5
			],
			"name":"3d4cf47926d446a99efb6490b06149d9.fbx",
			"rotation":[
				0.70710688829422,
				0,
				0,
				0.7071066498756409
			],
			"scale":[
				0.009999999776482582,
				0.010000000707805157,
				0.010000000707805157
			]
		},
		{
			"children":[
				6
			],
			"name":"Sketchfab_model",
			"rotation":[
				-0.70710688829422,
				0,
				0,
				0.7071066498756409
			]
		}
	],
	"materials":[
		{
			"doubleSided":true,
			"name":"larger_baseplate.002",
			"normalTexture":{
				"index":0
			},
			"occlusionTexture":{
				"index":1
			},
			"pbrMetallicRoughness":{
				"baseColorTexture":{
					"index":2
				},
				"metallicRoughnessTexture":{
					"index":1
				}
			}
		},
		{
			"doubleSided":true,
			"name":"Shell.002",
			"normalTexture":{
				"index":3,
				"scale":0.5489623546600342
			},
			"occlusionTexture":{
				"index":4
			},
			"pbrMetallicRoughness":{
				"baseColorTexture":{
					"index":5
				},
				"metallicFactor":0.8894748091697693,
				"metallicRoughnessTexture":{
					"index":4
				}
			}
		}
	],
	"meshes":[
		{
			"name":"Circle.001_larger baseplate_0.002",
			"primitives":[
				{
					"attributes":{
						"POSITION":0,
						"NORMAL":1,
						"TEXCOORD_0":2
					},
					"indices":3,
					"material":0
				}
			]
		},
		{
			"name":"Cube_Shell_0.002",
			"primitives":[
				{
					"attributes":{
						"POSITION":4,
						"NORMAL":5,
						"TEXCOORD_0":6
					},
					"indices":7,
					"material":1
				}
			]
		},
		{
			"name":"Cube_Shell_0.003",
			"primitives":[
				{
					"attributes":{
						"POSITION":8,
						"NORMAL":9,
						"TEXCOORD_0":10
					},
					"indices":11,
					"material":1
				}
			]
		}
	],
	"textures":[
		{
			"sampler":0,
			"source":0
		},
		{
			"sampler":0,
			"source":1
		},
		{
			"sampler":0,
			"source":2
		},
		{
			"sampler":0,
			"source":3
		},
		{
			"sampler":0,
			"source":4
		},
		{
			"sampler":0,
			"source":5
		}
	],
	"images":[
		{
			"mimeType":"image/png",
			"name":"larger_baseplate_normal",
			"uri":"larger_baseplate_normal.png"
		},
		{
			"mimeType":"image/png",
			"name":"larger_baseplate_metallicRoughness",
			"uri":"larger_baseplate_metallicRoughness.png"
		},
		{
			"mimeType":"image/png",
			"name":"larger_baseplate_baseColor",
			"uri":"larger_baseplate_baseColor.png"
		},
		{
			"mimeType":"image/png",
			"name":"Shell_normal",
			"uri":"Shell_normal.png"
		},
		{
			"mimeType":"image/png",
			"name":"Shell_metallicRoughness",
			"uri":"Shell_metallicRoughness.png"
		},
		{
			"mimeType":"image/png",
			"name":"Shell_baseColor",
			"uri":"Shell_baseColor.png"
		}
	],
	"accessors":[
		{
			"bufferView":0,
			"componentType":5126,
			"count":5205,
			"max":[
				1.1753208637237549,
				6.488109588623047,
				0.7579975128173828
			],
			"min":[
				-2.2031309604644775,
				-4.327245712280273,
				-0.6461954712867737
			],
			"type":"VEC3"
		},
		{
			"bufferView":1,
			"componentType":5126,
			"count":5205,
			"type":"VEC3"
		},
		{
			"bufferView":2,
			"componentType":5126,
			"count":5205,
			"type":"VEC2"
		},
		{
			"bufferView":3,
			"componentType":5123,
			"count":15882,
			"type":"SCALAR"
		},
		{
			"bufferView":4,
			"componentType":5126,
			"count":2381,
			"max":[
				2.1449761390686035,
				1.1014034748077393,
				2.6949877738952637
			],
			"min":[
				-2.156512975692749,
				-1.4642959833145142,
				-1.58538818359375
			],
			"type":"VEC3"
		},
		{
			"bufferView":5,
			"componentType":5126,
			"count":2381,
			"type":"VEC3"
		},
		{
			"bufferView":6,
			"componentType":5126,
			"count":2381,
			"type":"VEC2"
		},
		{
			"bufferView":7,
			"componentType":5123,
			"count":7932,
			"type":"SCALAR"
		},
		{
			"bufferView":8,
			"componentType":5126,
			"count":104,
			"max":[
				1.0180095434188843,
				-1.2198525667190552,
				1.1597858667373657
			],
			"min":[
				-1.850709319114685,
				-1.2682632207870483,
				-0.9574562311172485
			],
			"type":"VEC3"
		},
		{
			"bufferView":9,
			"componentType":5126,
			"count":104,
			"type":"VEC3"
		},
		{
			"bufferView":10,
			"componentType":5126,
			"count":104,
			"type":"VEC2"
		},
		{
			"bufferView":11,
			"componentType":5123,
			"count":516,
			"type":"SCALAR"
		}
	],
	"bufferViews":[
		{
			"buffer":0,
			"byteLength":62460,
			"byteOffset":0,
			"target":34962
		},
		{
			"buffer":0,
			"byteLength":62460,
			"byteOffset":62460,
			"target":34962
		},
		{
			"buffer":0,
			"byteLength":41640,
			"byteOffset":124920,
			"target":34962
		},
		{
			"buffer":0,
			"byteLength":31764,
			"byteOffset":166560,
			"target":34963
		},
		{
			"buffer":0,
			"byteLength":28572,
			"byteOffset":198324,
			"target":34962
		},
		{
			"buffer":0,
			"byteLength":28572,
			"byteOffset":226896,
			"target":34962
		},
		{
			"buffer":0,
			"byteLength":19048,
			"byteOffset":255468,
			"target":34962
		},
		{
			"buffer":0,
			"byteLength":15864,
			"byteOffset":274516,
			"target":34963
		},
		{
			"buffer":0,
			"byteLength":1248,
			"byteOffset":290380,
			"target":34962
		},
		{
			"buffer":0,
			"byteLength":1248,
			"byteOffset":291628,
			"target":34962
		},
		{
			"buffer":0,
			"byteLength":832,
			"byteOffset":292876,
			"target":34962
		},
		{
			"buffer":0,
			"byteLength":1032,
			"byteOffset":293708,
			"target":34963
		}
	],
	"samplers":[
		{
			"magFilter":9729,
			"minFilter":9987
		}
	],
	"buffers":[
		{
			"byteLength":294740,
			"uri":"scene2.bin"
		}
	]
}
